<?xml version="1.0" encoding="UTF-8"?>
<svg version="1.1" xmlns="http://www.w3.org/2000/svg" width="798" height="854">
<path d="M0 0 C1.92613371 1.59260407 3.39778371 3.06629069 5 5 C5 5.66 5 6.32 5 7 C5.57878906 7.2165625 6.15757812 7.433125 6.75390625 7.65625 C17.57552402 14.13040046 22.83417518 32.55555663 26.37280273 43.97802734 C26.81668051 45.40901051 27.27319207 46.83610321 27.73852539 48.26025391 C42.13529817 93.60076914 34.87016416 148.67814292 24 194 C23.59753838 195.73925537 23.19647879 197.47883581 22.796875 199.21875 C21.88819793 203.15179488 20.95392957 207.07769741 20 211 C21.16402344 211.11859375 22.32804688 211.2371875 23.52734375 211.359375 C27.68942505 211.88249311 31.58572061 212.93561519 35.5625 214.25 C36.25375977 214.47324951 36.94501953 214.69649902 37.65722656 214.92651367 C39.0845502 215.38901205 40.51082965 215.85474562 41.93603516 216.32373047 C43.84261065 216.94843051 45.7550635 217.55511593 47.66796875 218.16015625 C57.49235879 221.32067431 67.02224265 225.11192281 76.5715332 229.01416016 C79.0834657 230.03388303 81.60380673 231.03076588 84.125 232.02734375 C88.37628743 233.72595436 92.54556024 235.55137528 96.6875 237.5 C97.29916016 237.78230469 97.91082031 238.06460938 98.54101562 238.35546875 C102.82190376 240.35774658 106.92573666 242.60530857 111 245 C111.64864014 245.37656738 112.29728027 245.75313477 112.96557617 246.14111328 C117.99543122 249.06306552 123.00230916 252.02342523 128 255 C129.00933594 255.60070312 130.01867187 256.20140625 131.05859375 256.8203125 C141.88792752 263.48204234 153.23703321 271.75020172 162 281 C162 281.66 162 282.32 162 283 C163.32 283.66 164.64 284.32 166 285 C166 285.66 166 286.32 166 287 C166.60142822 287.26103516 167.20285645 287.52207031 167.82250977 287.79101562 C170.15584706 289.08652928 171.24371545 290.22891573 172.83984375 292.34375 C173.34322266 293.00785889 173.84660156 293.67196777 174.36523438 294.35620117 C174.88408203 295.06365479 175.40292969 295.7711084 175.9375 296.5 C176.47310547 297.22614502 177.00871094 297.95229004 177.56054688 298.70043945 C181.33576563 303.90410371 184.63811631 308.99406719 187 315 C187.38800781 315.87527344 187.77601563 316.75054687 188.17578125 317.65234375 C193.64820204 331.96338232 193.03037287 349.68570505 187.4453125 363.83984375 C185.40885543 368.29252961 183.37028001 372.71332338 181 377 C180.34 377 179.68 377 179 377 C178.88068115 377.59329102 178.7613623 378.18658203 178.63842773 378.79785156 C177.62162861 382.3051281 175.28235055 384.91681066 173.0625 387.75 C172.60681641 388.35199219 172.15113281 388.95398438 171.68164062 389.57421875 C170.50672508 391.09145961 169.25830593 392.55116855 168 394 C167.34 394 166.68 394 166 394 C165.773125 394.556875 165.54625 395.11375 165.3125 395.6875 C163.62449964 398.66159588 161.53323483 400.72008865 159 403 C158.34 403 157.68 403 157 403 C156.67 403.99 156.34 404.98 156 406 C154.63305664 407.3503418 154.63305664 407.3503418 152.91015625 408.69921875 C151.98106445 409.42915039 151.98106445 409.42915039 151.03320312 410.17382812 C150.38287109 410.67333984 149.73253906 411.17285156 149.0625 411.6875 C148.41603516 412.19861328 147.76957031 412.70972656 147.10351562 413.23632812 C142.26450893 417 142.26450893 417 140 417 C140 417.66 140 418.32 140 419 C137.98046875 420.48046875 137.98046875 420.48046875 135.1875 422.1875 C133.67542969 423.11949219 133.67542969 423.11949219 132.1328125 424.0703125 C131.09898437 424.70710938 130.06515625 425.34390625 129 426 C127.18685074 427.18650844 125.37433173 428.37398064 123.5625 429.5625 C118.83548607 432.57916986 113.96452196 435.08049713 108.921875 437.5234375 C106.08403663 438.95753229 103.39482776 440.52208323 100.6875 442.1875 C96.89828279 444.51050736 93.13603486 446.34558606 89 448 C87.66183976 448.59266278 86.3260982 449.19080246 84.9921875 449.79296875 C70.21038872 456.37795555 55.14055723 462.14076929 39.75 467.125 C37.95695435 467.71027466 37.95695435 467.71027466 36.12768555 468.30737305 C35.00789307 468.66226807 33.88810059 469.01716309 32.734375 469.3828125 C31.74663086 469.69621582 30.75888672 470.00961914 29.74121094 470.33251953 C27.04570508 470.98887089 24.76118203 471.1303157 22 471 C22.24234375 471.92296875 22.4846875 472.8459375 22.734375 473.796875 C26.78511581 489.45266155 29.83838547 505.18684628 32.1875 521.1875 C32.35443359 522.3022168 32.52136719 523.41693359 32.69335938 524.56542969 C34.93642409 540.40995881 35.20741538 556.27472862 35.1875 572.25 C35.18659363 573.60063034 35.18659363 573.60063034 35.18566895 574.97854614 C35.12330057 609.25034705 31.37311807 646.84799458 8 674 C6.21068201 675.70846472 4.41132915 677.28159078 2.4453125 678.78125 C0.71538712 680.1252074 0.71538712 680.1252074 -1 683 C-1.99 683 -2.98 683 -4 683 C-4 683.66 -4 684.32 -4 685 C-28.40225123 698.17577174 -52.53086494 697.70132098 -78.78515625 689.87109375 C-98.0901996 683.72511863 -115.65701443 674.34542019 -133 664 C-135.32783535 662.65671145 -137.66323302 661.32770851 -140 660 C-140 659.34 -140 658.68 -140 658 C-140.54527344 657.91492188 -141.09054687 657.82984375 -141.65234375 657.7421875 C-144.7758202 656.75473238 -146.93721093 655.07521473 -149.5625 653.125 C-150.51253906 652.42632813 -151.46257812 651.72765625 -152.44140625 651.0078125 C-155 649 -155 649 -156.52734375 647.4296875 C-158.00477031 645.88102793 -158.00477031 645.88102793 -160.16796875 644.734375 C-164.18972972 642.27139311 -167.69524291 639.26597161 -171.3125 636.25 C-172.03373047 635.65445313 -172.75496094 635.05890625 -173.49804688 634.4453125 C-180.96520378 628.25728292 -188.22213472 621.86559878 -195.3125 615.25 C-195.91900391 614.68667969 -196.52550781 614.12335937 -197.15039062 613.54296875 C-199.80992978 611.06775409 -202.44190172 608.58054192 -205 606 C-210.99704816 608.53721268 -215.5271604 613.41247221 -220 618 C-223.5052608 621.59513928 -227.03913666 624.91932851 -231 628 C-231.66 628 -232.32 628 -233 628 C-233.38937744 628.90322998 -233.38937744 628.90322998 -233.78662109 629.82470703 C-235.10131619 632.18163526 -236.24893707 633.22739448 -238.4140625 634.8046875 C-239.43306641 635.55685547 -239.43306641 635.55685547 -240.47265625 636.32421875 C-241.18292969 636.83597656 -241.89320313 637.34773437 -242.625 637.875 C-243.65560547 638.63103516 -243.65560547 638.63103516 -244.70703125 639.40234375 C-246.1026504 640.42614692 -247.50071479 641.44662461 -248.90112305 642.46386719 C-250.97032052 643.97827809 -253.01560962 645.52078723 -255.05859375 647.0703125 C-258.76279656 649.85573488 -262.56558096 652.45466594 -266.4375 655 C-267.75399695 655.86965438 -269.07040365 656.73944539 -270.38671875 657.609375 C-271.32330322 658.2271582 -271.32330322 658.2271582 -272.27880859 658.85742188 C-274.45112729 660.29947174 -276.59860751 661.77697451 -278.75 663.25 C-287.98104316 669.38683875 -298.0837489 674.09229607 -308 679 C-308.59876953 679.31678711 -309.19753906 679.63357422 -309.81445312 679.95996094 C-334.97208719 693.10296548 -369.25948605 700.66315054 -397 692 C-405.83900184 688.45690064 -414.22002948 683.79559257 -421 677 C-421 676.34 -421 675.68 -421 675 C-421.66 675 -422.32 675 -423 675 C-423.268125 674.195625 -423.53625 673.39125 -423.8125 672.5625 C-424.204375 671.716875 -424.59625 670.87125 -425 670 C-425.99 669.67 -426.98 669.34 -428 669 C-429.57990702 666.68882173 -430.9634491 664.44183355 -432.3125 662 C-432.70840332 661.28884033 -433.10430664 660.57768066 -433.51220703 659.8449707 C-447.89884025 633.14821588 -450.37543162 602.50062979 -450.4375 572.75 C-450.44349213 571.79667786 -450.44948425 570.84335571 -450.45565796 569.86114502 C-450.5015805 558.89333084 -449.93279789 548.49269583 -447.72631836 537.73535156 C-446.9628567 533.8089773 -446.51526517 529.97937047 -446.125 526 C-444.24504749 508.47166326 -439.92418278 491.16555933 -436 474 C-437.08796875 473.68546875 -438.1759375 473.3709375 -439.296875 473.046875 C-447.92769943 470.53895754 -456.50788272 467.95036571 -465 465 C-466.13050781 464.60941406 -467.26101563 464.21882813 -468.42578125 463.81640625 C-476.07145551 461.13415331 -483.56581771 458.22001268 -491 455 C-491.6492041 454.72317383 -492.2984082 454.44634766 -492.96728516 454.16113281 C-504.97663353 449.03130264 -516.52372868 443.2247809 -528 437 C-528.62712891 436.66097656 -529.25425781 436.32195312 -529.90039062 435.97265625 C-532.94072685 434.32794013 -535.97478521 432.67236593 -539 431 C-539 430.34 -539 429.68 -539 429 C-539.99 428.6596875 -539.99 428.6596875 -541 428.3125 C-544.88658628 426.6121185 -548.63679817 424.60376916 -552 422 C-552 421.34 -552 420.68 -552 420 C-552.82371094 419.88398437 -552.82371094 419.88398437 -553.6640625 419.765625 C-556.84843879 418.72191638 -558.82239298 416.90934823 -561.375 414.75 C-562.33792969 413.93917969 -563.30085937 413.12835938 -564.29296875 412.29296875 C-565.18628906 411.53628906 -566.07960938 410.77960938 -567 410 C-568.2282772 409.01971781 -569.45721847 408.04026552 -570.6875 407.0625 C-571.450625 406.381875 -572.21375 405.70125 -573 405 C-573 404.34 -573 403.68 -573 403 C-573.556875 402.773125 -574.11375 402.54625 -574.6875 402.3125 C-577.66159588 400.62449964 -579.72008865 398.53323483 -582 396 C-582 395.34 -582 394.68 -582 394 C-582.66 394 -583.32 394 -584 394 C-597.5951029 378.17530022 -607.91326325 358.12564067 -607.41796875 336.8515625 C-605.85020652 322.40470682 -600.38109096 309.80269193 -592.3125 297.875 C-591.9196582 297.29322998 -591.52681641 296.71145996 -591.12207031 296.11206055 C-590.1352167 294.70211789 -589.07329504 293.34530892 -588 292 C-587.34 292 -586.68 292 -586 292 C-585.9071875 291.1646875 -585.9071875 291.1646875 -585.8125 290.3125 C-584.6519231 287.00931958 -582.59786554 285.28105267 -580 283 C-579.34 283 -578.68 283 -578 283 C-577.74331543 282.40848145 -577.48663086 281.81696289 -577.22216797 281.20751953 C-573.46064892 274.41334149 -565.03422634 269.62881961 -558.875 265.125 C-558.04605225 264.51785156 -557.21710449 263.91070312 -556.36303711 263.28515625 C-545.69191861 255.52808583 -534.91935217 248.71135625 -523 243 C-521.72751975 242.35872633 -520.45677457 241.71400177 -519.1875 241.06640625 C-510.58765356 236.68409304 -501.92212409 232.69224071 -493 229 C-492.12980225 228.6280249 -491.25960449 228.2560498 -490.36303711 227.87280273 C-483.02323593 224.757105 -475.6065983 222.01517938 -468.0625 219.4375 C-466.98548828 219.06431641 -465.90847656 218.69113281 -464.79882812 218.30664062 C-454.95367965 214.9188726 -445.02892442 211.79876961 -435 209 C-435.19110352 208.27224365 -435.38220703 207.5444873 -435.57910156 206.79467773 C-449.34547503 154.01943795 -460.72462578 89.44881897 -440 37 C-439.5875 35.88367187 -439.175 34.76734375 -438.75 33.6171875 C-435.0494415 24.09798768 -430.17544093 14.38045352 -423 7 C-422.34 7 -421.68 7 -421 7 C-420.79375 6.443125 -420.5875 5.88625 -420.375 5.3125 C-415.28456523 -3.24868574 -402.74812473 -8.37958897 -393.6328125 -10.94921875 C-371.15397386 -15.68028835 -348.29636751 -12.32008623 -327 -4 C-325.99324219 -3.60941406 -324.98648437 -3.21882812 -323.94921875 -2.81640625 C-320.9383899 -1.60011115 -317.9676342 -0.31811164 -315 1 C-313.25976562 1.76957031 -313.25976562 1.76957031 -311.484375 2.5546875 C-288.32851577 12.97313931 -266.68920818 27.00604435 -247 43 C-245.65035156 44.08087891 -245.65035156 44.08087891 -244.2734375 45.18359375 C-238.37075805 49.95506806 -232.60063838 54.87782084 -226.85766602 59.83935547 C-223.6233898 62.63024165 -220.33687232 65.33165478 -217 68 C-214.1875 70.625 -214.1875 70.625 -212 73 C-212 73.66 -212 74.32 -212 75 C-209.1575146 76.57273568 -209.1575146 76.57273568 -206 77 C-204.22813156 75.35043225 -202.54803663 73.68261373 -200.875 71.9375 C-197.04790628 68.0261915 -193.1711245 64.27922129 -189.00390625 60.7265625 C-186.74766614 58.78258954 -184.56636107 56.76676482 -182.375 54.75 C-178.2676708 51.0438518 -174.0296296 47.54910534 -169.6875 44.125 C-168.80747314 43.42842285 -168.80747314 43.42842285 -167.90966797 42.71777344 C-165.45278788 40.80024271 -163.01977371 39.01163841 -160.33203125 37.4296875 C-157.94346492 36.09223719 -157.94346492 36.09223719 -156.12890625 34.11328125 C-153.33659734 31.34146635 -150.22551355 29.32812735 -146.9375 27.1875 C-146.26920166 26.74809082 -145.60090332 26.30868164 -144.91235352 25.85595703 C-142.94493015 24.56540275 -140.97293886 23.2821007 -139 22 C-137.5459375 21.04673828 -137.5459375 21.04673828 -136.0625 20.07421875 C-119.28532473 9.21399369 -101.9654981 -0.09183642 -82.95043945 -6.32739258 C-81.01137114 -6.99607867 -79.12989029 -7.75807944 -77.23046875 -8.53125 C-72.07230257 -10.48144182 -66.73954424 -11.31486297 -61.3125 -12.1875 C-59.70967163 -12.44575562 -59.70967163 -12.44575562 -58.07446289 -12.70922852 C-36.80231021 -15.98498134 -17.65658676 -12.66051076 0 0 Z M-408.33984375 22.83203125 C-426.16761266 46.11300006 -428.78006098 75.57381089 -428.5 104 C-428.49446106 105.10940948 -428.48892212 106.21881897 -428.48321533 107.36184692 C-428.31976524 135.39454364 -424.35058754 161.68285781 -418 189 C-417.73074707 190.19463867 -417.46149414 191.38927734 -417.18408203 192.62011719 C-416.91837402 193.79477539 -416.65266602 194.96943359 -416.37890625 196.1796875 C-416.13857666 197.24687012 -415.89824707 198.31405273 -415.65063477 199.41357422 C-415.10786955 201.96384406 -415.10786955 201.96384406 -414 204 C-405.93797266 203.06383562 -398.21488275 201.92737469 -390.36816406 199.82324219 C-386.70183725 198.92712346 -383.02162176 198.22843286 -379.3046875 197.5859375 C-378.56758545 197.45742905 -377.8304834 197.32892059 -377.07104492 197.19651794 C-369.23096204 195.84440459 -361.37225921 194.62102215 -353.50469971 193.44064331 C-350.92698471 193.05147662 -348.35098305 192.65202652 -345.77490234 192.25219727 C-337.33097955 190.96056294 -328.93239191 189.83758584 -320.4140625 189.1796875 C-318.91268927 189.05022027 -317.41138511 188.91994905 -315.91015625 188.78881836 C-313.13329705 188.54712327 -310.36638278 188.38195747 -307.58203125 188.26000977 C-302.07506703 187.78609041 -297.87836799 187.28242266 -294.01025391 183.14306641 C-291.38207048 179.93359167 -289.19110437 176.5189595 -287 173 C-285.71708813 171.16052969 -284.42719294 169.32587169 -283.125 167.5 C-282.57972656 166.7059375 -282.03445313 165.911875 -281.47265625 165.09375 C-280.24121797 163.34295181 -278.91228267 161.66127098 -277.5625 160 C-275.79478532 158.16032397 -275.79478532 158.16032397 -276 156 C-275.34 156 -274.68 156 -274 156 C-272.78995325 154.48668339 -271.65876169 152.91017036 -270.5625 151.3125 C-267.44988067 146.91887488 -264.2012129 142.7655497 -260.6875 138.6875 C-256.22143316 133.50067111 -251.94977148 128.19377278 -247.79174805 122.7565918 C-245.07486773 119.2379244 -242.17854443 116.10262378 -239 113 C-235.95738522 109.70472993 -232.98034297 106.35161436 -230 103 C-229.30648437 102.22269531 -228.61296875 101.44539063 -227.8984375 100.64453125 C-227.27195312 99.93683594 -226.64546875 99.22914062 -226 98.5 C-225.443125 97.8709375 -224.88625 97.241875 -224.3125 96.59375 C-222.9169743 95.02009539 -222.9169743 95.02009539 -222 93 C-222.41507813 92.64550781 -222.83015625 92.29101562 -223.2578125 91.92578125 C-226.76307255 88.8971779 -230.20821714 85.81918162 -233.578125 82.640625 C-234.20315918 82.05240967 -234.82819336 81.46419434 -235.47216797 80.8581543 C-236.73558348 79.66590114 -237.99507014 78.46947015 -239.25048828 77.26879883 C-242.13577684 74.10267802 -242.13577684 74.10267802 -246 73 C-246 72.34 -246 71.68 -246 71 C-248.04645092 69.22903285 -250.09981851 67.57440516 -252.25 65.9375 C-252.88389648 65.44797852 -253.51779297 64.95845703 -254.17089844 64.45410156 C-256.10839759 62.96200451 -258.0530527 61.47974004 -260 60 C-260.55429687 59.5767041 -261.10859375 59.1534082 -261.6796875 58.71728516 C-267.54382114 54.24442452 -273.4780089 49.8885462 -279.55078125 45.703125 C-281.27194493 44.50627115 -282.97640395 43.2852094 -284.66796875 42.046875 C-285.54066406 41.41265625 -286.41335938 40.7784375 -287.3125 40.125 C-288.48232422 39.26261719 -288.48232422 39.26261719 -289.67578125 38.3828125 C-292.15215772 36.90947255 -294.16280198 36.39168397 -297 36 C-297 35.34 -297 34.68 -297 34 C-300.08809695 32.23537317 -301.23312136 32 -305 32 C-305.495 30.515 -305.495 30.515 -306 29 C-308.42324067 27.57526563 -310.7822961 26.32848797 -313.3125 25.125 C-314.03727539 24.77276367 -314.76205078 24.42052734 -315.50878906 24.05761719 C-321.57946474 21.13608778 -327.70606692 18.40803793 -334 16 C-334.89203125 15.65324219 -335.7840625 15.30648438 -336.703125 14.94921875 C-359.86101422 6.57227279 -390.77385126 1.50475563 -408.33984375 22.83203125 Z M-87 18 C-88.15628906 18.47373047 -88.15628906 18.47373047 -89.3359375 18.95703125 C-107.39343662 26.53287858 -129.88676251 37.44251174 -143.59765625 51.65625 C-145 53 -145 53 -148 54 C-149.67661665 55.65665693 -151.34174158 57.32496729 -153 59 C-155.05799311 60.59572816 -157.14200964 62.15842817 -159.25 63.6875 C-163.22849953 66.31865334 -163.22849953 66.31865334 -166 70 C-167.485 70.495 -167.485 70.495 -169 71 C-170.38257459 72.39779556 -170.38257459 72.39779556 -171.6875 74.125 C-175.08615288 78.23519351 -178.94748403 81.55353596 -183 85 C-184.67009542 86.47529424 -186.33678916 87.95444858 -188 89.4375 C-189.1446875 90.45650391 -189.1446875 90.45650391 -190.3125 91.49609375 C-191.1478125 92.24052734 -191.1478125 92.24052734 -192 93 C-190.43389557 96.84407452 -187.96535592 99.14703366 -185 102 C-179.58134011 107.74970342 -174.36822046 113.57407722 -169.66796875 119.9296875 C-167.97468269 122.11057894 -167.97468269 122.11057894 -165.6875 124.2890625 C-162.48563918 127.51884653 -159.65960667 130.95845631 -156.8125 134.5 C-156.24442627 135.20342529 -155.67635254 135.90685059 -155.09106445 136.6315918 C-147.87807038 145.59392675 -140.88127593 154.69755335 -134.1484375 164.02734375 C-131.51126757 167.67622796 -128.85061642 171.30753082 -126.1875 174.9375 C-125.71900635 175.57671387 -125.2505127 176.21592773 -124.76782227 176.87451172 C-123.89047757 178.07064562 -123.00630001 179.26180811 -122.11425781 180.44702148 C-121 182 -121 182 -119.74609375 184.34375 C-116.73399613 187.20086273 -112.88010564 187.11634773 -108.875 187.5625 C-107.94776123 187.68052979 -107.02052246 187.79855957 -106.06518555 187.92016602 C-103.04546813 188.29954516 -100.02351768 188.65229307 -97 189 C-94.98821901 189.23645022 -92.97650019 189.47342995 -90.96484375 189.7109375 C-89.95631348 189.82993408 -88.9477832 189.94893066 -87.90869141 190.0715332 C-86.88694824 190.19230225 -85.86520508 190.31307129 -84.8125 190.4375 C-83.77013184 190.56020264 -82.72776367 190.68290527 -81.65380859 190.80932617 C-62.26957636 193.12613719 -43.14319127 196.4408768 -24.02929688 200.38427734 C-19.00722422 201.40504356 -13.97296013 202.36034654 -8.9375 203.3125 C-7.57951294 203.56966797 -7.57951294 203.56966797 -6.1940918 203.83203125 C-4.12958563 204.22236624 -2.06482454 204.61135269 0 205 C0.60924908 202.50115098 1.2123388 200.00103538 1.8125 197.5 C1.97814453 196.82324219 2.14378906 196.14648438 2.31445312 195.44921875 C5.45801148 182.28186111 7.62777668 168.88275623 9.625 155.5 C9.78891739 154.40347107 9.78891739 154.40347107 9.95614624 153.28479004 C11.88745188 140.1919273 12.87744278 127.2416271 13 114 C13.04060547 112.11667969 13.04060547 112.11667969 13.08203125 110.1953125 C13.12607959 106.79157738 13.0801586 103.40309686 13 100 C12.98114746 98.83065918 12.98114746 98.83065918 12.96191406 97.63769531 C12.54477297 74.98438026 8.44727175 55.0321082 0 34 C-0.66 34 -1.32 34 -2 34 C-2.4021875 32.9171875 -2.4021875 32.9171875 -2.8125 31.8125 C-5.3605903 25.77754928 -9.15695037 20.43579318 -14 16 C-14.99 16 -15.98 16 -17 16 C-17 15.34 -17 14.68 -17 14 C-18.74802146 13.18325204 -20.49850189 12.37176549 -22.25 11.5625 C-23.22453125 11.11003906 -24.1990625 10.65757813 -25.203125 10.19140625 C-44.59087107 1.93265967 -68.82777273 10.08488908 -87 18 Z M-208 109 C-208.38929688 109.44988281 -208.77859375 109.89976563 -209.1796875 110.36328125 C-212.73791602 114.45442418 -216.3460276 118.49403944 -220 122.5 C-226.76931498 129.93297332 -233.29260551 137.50122306 -239.62695312 145.30908203 C-241.20182409 147.24854794 -242.78054404 149.18485027 -244.359375 151.12109375 C-245.53134457 152.5598188 -246.70321993 153.9986206 -247.875 155.4375 C-248.43461426 156.12392578 -248.99422852 156.81035156 -249.57080078 157.51757812 C-254.60047926 162.7342471 -254.60047926 162.7342471 -257 169 C-257.66 169 -258.32 169 -259 169 C-259.33 169.99 -259.66 170.98 -260 172 C-260.98860509 173.01126652 -261.99040834 174.00968455 -263 175 C-264.09372939 176.54080126 -265.15531225 178.10481211 -266.1875 179.6875 C-266.98220703 180.89986328 -266.98220703 180.89986328 -267.79296875 182.13671875 C-268.39044922 183.05904297 -268.39044922 183.05904297 -269 184 C-268.38036377 183.96970703 -267.76072754 183.93941406 -267.12231445 183.90820312 C-226.88934117 182.05693809 -186.22885302 182.03327932 -146 184 C-146.61875 182.865625 -147.2375 181.73125 -147.875 180.5625 C-148.22304688 179.92441406 -148.57109375 179.28632813 -148.9296875 178.62890625 C-149.91410024 176.83381685 -149.91410024 176.83381685 -152 176 C-153.02224497 174.34688385 -154.01802278 172.67734865 -155 171 C-159.94732738 164.06579416 -165.23392144 157.42811406 -170.66796875 150.87109375 C-174.10104864 146.64443761 -177.36859614 142.29732474 -180.640625 137.9453125 C-182.93918355 135.07591988 -185.37228404 132.56707636 -188 130 C-189.80332822 128.0716623 -191.59568658 126.13759222 -193.375 124.1875 C-193.85251709 123.66631592 -194.33003418 123.14513184 -194.82202148 122.6081543 C-198.17228141 118.94032883 -201.4497118 115.21708851 -204.66015625 111.42578125 C-205.96354821 109.87425096 -205.96354821 109.87425096 -208 109 Z M-268.94677734 204.74560547 C-271.07417701 204.92286042 -273.20572858 205.0537878 -275.33837891 205.14892578 C-276.40878418 205.20419434 -277.47918945 205.25946289 -278.58203125 205.31640625 C-280.00286011 205.37163452 -280.00286011 205.37163452 -281.45239258 205.42797852 C-287.07772891 206.69105116 -289.77712394 212.3847394 -292.75 216.9375 C-293.40959717 217.93765137 -293.40959717 217.93765137 -294.08251953 218.95800781 C-297.4271109 224.05672158 -300.64519742 229.22677641 -303.8125 234.4375 C-305.94017036 237.92495968 -308.13280601 241.36967565 -310.32641602 244.81591797 C-317.86561131 256.66611142 -325.14255785 268.66044575 -331.87109375 280.9921875 C-333.12496701 283.22225966 -334.46627455 285.38699968 -335.8125 287.5625 C-338.76891233 292.44963059 -341.30410494 297.49614676 -343.82299805 302.61669922 C-346.32664144 307.69502814 -348.94978974 312.69775667 -351.625 317.6875 C-354.35251302 322.82405275 -357.062021 327.96661685 -359.625 333.1875 C-360.11226562 334.17105469 -360.59953125 335.15460938 -361.1015625 336.16796875 C-363.33422362 343.20570487 -359.10576431 349.52423034 -356.0625 355.75 C-355.32640503 357.27330933 -355.32640503 357.27330933 -354.57543945 358.82739258 C-350.72311987 366.71571114 -346.55997097 374.39184314 -342.2265625 382.0234375 C-339.7263123 386.44075826 -337.46317069 390.94932153 -335.25390625 395.51953125 C-333.95082691 398.09727386 -332.51219722 400.53974131 -331 403 C-327.94114308 408.0439558 -324.92881012 413.10515891 -322.02832031 418.24243164 C-319.07001482 423.47846379 -316.03844883 428.61207479 -312.640625 433.578125 C-310.47907516 436.76898429 -308.3953909 440.00742736 -306.3125 443.25 C-305.9316626 443.84103516 -305.5508252 444.43207031 -305.15844727 445.04101562 C-303.56124443 447.52782206 -301.98657267 450.02243596 -300.46875 452.55859375 C-293.14267268 464.95013996 -293.14267268 464.95013996 -284 476 C-261.50196995 479.10575956 -238.5213386 478.30717781 -215.87255859 478.26074219 C-210.25990487 478.24936244 -204.64744105 478.25611096 -199.03479385 478.26761627 C-162.42379204 481.18222517 -162.42379204 481.18222517 -128 474 C-126.21018063 471.69101496 -126.21018063 471.69101496 -124.625 468.9375 C-124.01398438 467.9371875 -123.40296875 466.936875 -122.7734375 465.90625 C-122.18820312 464.9471875 -121.60296875 463.988125 -121 463 C-120.09175548 461.64017022 -119.17550831 460.28563927 -118.25 458.9375 C-114.66182756 453.60346947 -111.37191246 448.08679397 -108.03930664 442.59130859 C-105.66690147 438.68969517 -103.26976436 434.83028942 -100.6875 431.0625 C-97.98969721 427.10469189 -95.74485108 422.95596818 -93.48828125 418.734375 C-92.1170653 416.21508061 -90.67926745 413.76179311 -89.1875 411.3125 C-83.16890917 401.37629625 -77.54199746 391.25385584 -72.44140625 380.81640625 C-71.01119609 378.02187638 -69.44428036 375.36855756 -67.8125 372.6875 C-64.21620686 366.63441335 -61.16702156 360.3470917 -58.125 354 C-57.63620361 352.98381592 -57.14740723 351.96763184 -56.64379883 350.9206543 C-53.66944951 345.1726225 -53.66944951 345.1726225 -52 339 C-52.72118383 336.82381522 -52.72118383 336.82381522 -53.984375 334.6640625 C-54.42523437 333.84679687 -54.86609375 333.02953125 -55.3203125 332.1875 C-55.79210937 331.341875 -56.26390625 330.49625 -56.75 329.625 C-57.66183533 327.95072609 -58.5733021 326.27625141 -59.484375 324.6015625 C-59.92563721 323.79920166 -60.36689941 322.99684082 -60.8215332 322.17016602 C-61.7358109 320.48650859 -62.60894809 318.78047995 -63.46484375 317.06640625 C-65.79293799 312.41614168 -68.31400792 307.87294466 -70.8125 303.3125 C-71.83984375 301.43359375 -72.8671875 299.5546875 -73.89453125 297.67578125 C-74.40564453 296.74217773 -74.91675781 295.80857422 -75.44335938 294.84667969 C-77.01419118 291.97404812 -78.57948928 289.09844541 -80.14453125 286.22265625 C-85.52370818 276.36068555 -91.14079272 266.68019152 -97.07421875 257.140625 C-98.89888975 254.1648938 -100.64459543 251.15624735 -102.375 248.125 C-105.81506769 242.18306489 -109.60137012 236.51345627 -113.4375 230.82421875 C-116.70289619 225.97450989 -119.84632566 221.04883675 -122.9921875 216.12109375 C-123.65476562 215.09113281 -124.31734375 214.06117188 -125 213 C-125.70382812 211.89785156 -126.40765625 210.79570312 -127.1328125 209.66015625 C-128.72961868 206.93720848 -128.72961868 206.93720848 -131 206 C-133.61133682 205.69757473 -136.20469047 205.45083042 -138.82421875 205.24609375 C-139.64849869 205.18069397 -140.47277863 205.11529419 -141.32203674 205.0479126 C-183.4894851 201.81521149 -226.78227487 200.95442659 -268.94677734 204.74560547 Z M-102 209 C-99.33150006 213.88831405 -96.6088708 218.74614636 -93.8125 223.5625 C-93.32394531 224.40941406 -92.83539062 225.25632813 -92.33203125 226.12890625 C-91.89246094 226.74636719 -91.45289063 227.36382812 -91 228 C-90.34 228 -89.68 228 -89 228 C-88.88914062 228.5671875 -88.77828125 229.134375 -88.6640625 229.71875 C-87.91009202 232.30886034 -86.80164483 234.21126499 -85.375 236.5 C-83.02206497 240.32211216 -80.73649361 244.17100113 -78.5 248.0625 C-75.98594771 252.39688154 -73.34473176 256.57749848 -70.45703125 260.671875 C-68.79416604 263.32889286 -67.44480806 266.07431671 -66.06420898 268.88574219 C-64.37387817 272.24391261 -62.49476331 275.48944346 -60.625 278.75 C-57.38148233 284.45233471 -54.3594608 290.21473378 -51.4765625 296.109375 C-49.32977746 300.31207587 -46.93336404 304.35490351 -44.515625 308.40625 C-43.24983964 310.57243938 -42.08713194 312.74047087 -41 315 C-38.97795087 312.97795087 -38.21115415 311.56468456 -37.046875 308.9921875 C-36.67804199 308.17862793 -36.30920898 307.36506836 -35.92919922 306.52685547 C-35.54006348 305.65174316 -35.15092773 304.77663086 -34.75 303.875 C-34.34668457 302.97281738 -33.94336914 302.07063477 -33.52783203 301.14111328 C-30.3139844 293.87307063 -27.46700603 286.51927468 -24.7578125 279.05224609 C-23.35122944 275.24305242 -21.85711207 271.46778902 -20.375 267.6875 C-16.87061781 258.70740205 -13.41971602 249.75545182 -10.7265625 240.4921875 C-10.21651063 238.74265474 -9.68889725 236.99819207 -9.1484375 235.2578125 C-8.87257813 234.36835938 -8.59671875 233.47890625 -8.3125 232.5625 C-8.06113281 231.75941406 -7.80976562 230.95632812 -7.55078125 230.12890625 C-6.87476553 227.88243771 -6.87476553 227.88243771 -7 225 C-27.0623117 219.64805694 -47.43391912 215.79907444 -68 213 C-69.2267041 212.83081055 -70.4534082 212.66162109 -71.71728516 212.48730469 C-75.81072246 211.92308334 -79.90518733 211.36664071 -84 210.8125 C-84.66728119 210.72169159 -85.33456238 210.63088318 -86.02206421 210.537323 C-87.93098349 210.27847999 -89.84048288 210.0239264 -91.75 209.76953125 C-93.41289063 209.54680542 -93.41289063 209.54680542 -95.109375 209.31958008 C-98.1779231 208.9267414 -98.1779231 208.9267414 -102 209 Z M-331.25 210.75 C-331.93996063 210.83925751 -332.62992126 210.92851501 -333.34078979 211.02047729 C-351.02624687 213.31860199 -368.59609738 216.07766297 -386 220 C-387.72781619 220.36069739 -389.45691956 220.71530735 -391.1875 221.0625 C-391.96351563 221.21847656 -392.73953125 221.37445313 -393.5390625 221.53515625 C-395.36278771 221.87963768 -397.19195395 222.19557901 -399.0234375 222.49609375 C-400.02632812 222.66238281 -401.02921875 222.82867187 -402.0625 223 C-402.98160156 223.144375 -403.90070313 223.28875 -404.84765625 223.4375 C-405.55792969 223.623125 -406.26820313 223.80875 -407 224 C-408.6362395 227.27247901 -407.01832695 230.44731888 -406.0625 233.8125 C-405.83941162 234.60712646 -405.61632324 235.40175293 -405.38647461 236.22045898 C-403.0434374 244.28674255 -400.04241573 252.06768082 -396.98046875 259.8828125 C-395.16238257 264.53048604 -393.49656528 269.21835007 -391.875 273.9375 C-389.64634832 280.37850684 -387.11769036 286.60908497 -384.375 292.8515625 C-383.15135304 295.65343593 -381.99525393 298.46810526 -380.875 301.3125 C-379.04993008 305.9365217 -377.05520888 310.47416769 -375 315 C-372.69360638 312.87585321 -371.23248495 310.86099294 -369.80078125 308.078125 C-369.40044678 307.30766846 -369.0001123 306.53721191 -368.58764648 305.7434082 C-368.16684814 304.9205835 -367.7460498 304.09775879 -367.3125 303.25 C-366.41436781 301.51937277 -365.51592686 299.78890574 -364.6171875 298.05859375 C-364.17342773 297.19991699 -363.72966797 296.34124023 -363.27246094 295.45654297 C-356.50873418 282.39886481 -349.41241956 269.52747003 -341.984375 256.8359375 C-341.2250769 255.5360791 -341.2250769 255.5360791 -340.45043945 254.20996094 C-339.45565482 252.51030309 -338.45690315 250.81295978 -337.45385742 249.11816406 C-337.00373291 248.34956055 -336.5536084 247.58095703 -336.08984375 246.7890625 C-335.68628662 246.10537598 -335.28272949 245.42168945 -334.86694336 244.71728516 C-333.84977925 243.02305344 -333.84977925 243.02305344 -334 241 C-333.34 241 -332.68 241 -332 241 C-330.48165014 238.76502079 -330.48165014 238.76502079 -328.9375 235.875 C-325.84987399 230.41177913 -322.56769592 225.13353434 -319.10913086 219.89794922 C-316.80288932 216.37293704 -314.81435308 212.80095486 -313 209 C-319.14065636 209 -325.16807509 209.95890414 -331.25 210.75 Z M-437.8359375 232.109375 C-438.73570312 232.36976563 -439.63546875 232.63015625 -440.5625 232.8984375 C-441.490625 233.17945313 -442.41875 233.46046875 -443.375 233.75 C-444.29539062 234.01554688 -445.21578125 234.28109375 -446.1640625 234.5546875 C-451.29256249 236.06393178 -456.11454911 237.84088687 -461 240 C-462.55275227 240.49034282 -464.11496849 240.952365 -465.6875 241.375 C-470.4957946 242.77561434 -475.02666369 244.58982547 -479.625 246.56640625 C-482.03339529 247.58941675 -484.43943706 248.57453143 -486.875 249.52734375 C-498.01592794 253.91938964 -508.5210452 259.2140591 -519 265 C-520.68802734 265.93005859 -520.68802734 265.93005859 -522.41015625 266.87890625 C-529.91967077 271.14320237 -536.99612271 275.95994279 -544 281 C-544.57443848 281.41137207 -545.14887695 281.82274414 -545.74072266 282.24658203 C-547.43814032 283.46783112 -549.12689478 284.70001172 -550.8125 285.9375 C-551.80894531 286.66839844 -552.80539062 287.39929688 -553.83203125 288.15234375 C-554.54746094 288.76207031 -555.26289062 289.37179687 -556 290 C-556 290.66 -556 291.32 -556 292 C-556.556875 292.226875 -557.11375 292.45375 -557.6875 292.6875 C-560.65253447 294.3703574 -562.65353689 296.53621374 -565 299 C-566.1446875 300.0828125 -566.1446875 300.0828125 -567.3125 301.1875 C-569.22713951 302.83122273 -569.22713951 302.83122273 -569 305 C-569.66 305 -570.32 305 -571 305 C-579.5209448 313.25713846 -585.21872722 327.69831663 -585.4375 339.25 C-585.54961886 348.6394794 -583.15469417 355.62603093 -579 364 C-578.60554687 364.79664063 -578.21109375 365.59328125 -577.8046875 366.4140625 C-577.53914062 366.93742188 -577.27359375 367.46078125 -577 368 C-576.34 368 -575.68 368 -575 368 C-574.64808594 369.05574219 -574.64808594 369.05574219 -574.2890625 370.1328125 C-570.38348173 378.81977095 -562.30721779 386.0952966 -555 392 C-553.85811162 392.97378087 -552.71762121 393.9492022 -551.578125 394.92578125 C-541.97955536 403.05110466 -531.89504773 409.74334478 -521 416 C-520.39720215 416.34861084 -519.7944043 416.69722168 -519.17333984 417.05639648 C-509.03522212 422.8931083 -498.7355017 428.34290912 -488 433 C-486.98164063 433.45890625 -485.96328125 433.9178125 -484.9140625 434.390625 C-470.76923246 440.65523504 -456.07828297 445.47472915 -441.28515625 449.95703125 C-438 451 -438 451 -435.30859375 452.13671875 C-432.78635088 453.23350325 -432.78635088 453.23350325 -429 453 C-426.54228468 446.64289277 -424.44007984 440.23471226 -422.5625 433.6875 C-419.4570183 422.92412869 -415.65841317 412.49078093 -411.44604492 402.11035156 C-408.81712922 395.61430502 -406.34688061 389.059148 -403.89135742 382.49584961 C-402.03412125 377.57009527 -400.03997322 372.74370924 -397.87060547 367.94726562 C-396.87564356 365.72185447 -395.98758642 363.46719269 -395.125 361.1875 C-393.59231519 357.22960309 -391.71680567 353.60086146 -389.6875 349.875 C-387.60396977 345.70793955 -386.12278548 342.72166303 -387.1875 338.1015625 C-388.63614078 334.3545974 -390.50580926 330.83650881 -392.3828125 327.2890625 C-394.62980431 322.71909364 -396.20239227 317.98283018 -397.8515625 313.171875 C-398.76832648 310.6398602 -399.73628458 308.36567526 -401 306 C-403.46444606 301.36922636 -405.04508414 296.43218105 -406.765625 291.48828125 C-408.13885635 287.607599 -409.641552 283.7962154 -411.203125 279.98828125 C-411.86061325 278.34778361 -412.4411151 276.67665469 -413 275 C-413.66 275 -414.32 275 -415 275 C-415.061875 273.96875 -415.12375 272.9375 -415.1875 271.875 C-415.84306857 266.711275 -417.65008044 262.08962973 -419.45703125 257.23046875 C-421.36675484 252.07079807 -423.08304403 246.84725293 -424.8125 241.625 C-425.12654785 240.67858643 -425.4405957 239.73217285 -425.76416016 238.75708008 C-426.51073355 236.50514473 -427.25605232 234.25280387 -428 232 C-431.72572821 231.0348369 -434.15234594 231.02799401 -437.8359375 232.109375 Z M14 231 C13.59523438 232.22203125 13.19046875 233.4440625 12.7734375 234.703125 C8.11922303 248.66031213 3.44822516 262.63977184 -1.953125 276.328125 C-3.03861779 279.09856183 -4.0568559 281.88716797 -5.0625 284.6875 C-7.74588783 292.11261733 -10.68890446 299.39471222 -13.9375 306.58984375 C-15.15541639 309.35254379 -16.29530042 312.1426804 -17.4375 314.9375 C-19.0295943 318.79281758 -20.72558065 322.53672072 -22.625 326.25 C-27.23456977 334.72248141 -27.23456977 334.72248141 -27 344 C-26.26242572 345.65025613 -25.46792853 347.27599012 -24.625 348.875 C-22.12531578 353.73152935 -19.96411696 358.6604994 -17.8828125 363.7109375 C-15.85885703 368.60111563 -13.80750915 373.45679719 -11.5625 378.25 C-9.23459478 383.31192476 -7.27551272 388.48459987 -5.36035156 393.7121582 C-3.89224667 397.69602753 -2.32853394 401.61054898 -0.64306641 405.50927734 C2.16716777 412.03344829 4.58146536 418.62818594 6.78515625 425.37890625 C7.02892502 426.12385849 7.27269379 426.86881073 7.52384949 427.63633728 C8.7618641 431.43199504 9.98160865 435.23255475 11.18041992 439.04077148 C11.63563022 440.45435282 12.0911038 441.86784941 12.546875 443.28125 C12.85124229 444.27536644 12.85124229 444.27536644 13.16175842 445.28956604 C13.79480416 447.32700688 13.79480416 447.32700688 15 450 C18.48782398 451.16260799 19.55523963 450.78459646 23.015625 449.77734375 C24.01198975 449.48923828 25.00835449 449.20113281 26.03491211 448.90429688 C27.09589111 448.58525391 28.15687012 448.26621094 29.25 447.9375 C30.88110718 447.45313477 30.88110718 447.45313477 32.54516602 446.95898438 C40.9280946 444.42349561 48.94647354 441.44644862 57 438 C58.33847075 437.45883126 59.67837687 436.92120212 61.01953125 436.38671875 C81.13057344 428.34136582 100.38865146 418.85192214 118.4855957 406.91796875 C120.68340431 405.46928541 122.83120627 404.08170335 125.203125 402.93359375 C127.22754756 401.8817742 128.39597042 400.61489097 130 399 C131.04497156 398.15184736 132.10558986 397.32267049 133.1796875 396.51171875 C133.77910156 396.05216797 134.37851562 395.59261719 134.99609375 395.11914062 C136.23811114 394.17278018 137.48286615 393.23000074 138.73046875 392.29101562 C142.75699533 389.19136615 145.8485013 385.98555431 149 382 C149.763125 381.278125 150.52625 380.55625 151.3125 379.8125 C157.33804929 373.5066926 166 364.06776143 166 355 C166.66 355 167.32 355 168 355 C171.5205801 341.79782462 170.84008044 329.92791806 164 318 C159.03736269 309.71712202 154.14532121 302.55147421 146.6484375 296.39453125 C145 295 145 295 143.4140625 293.32421875 C142.0795784 291.7721538 142.0795784 291.7721538 140 292 C140 291.34 140 290.68 140 290 C139.34 290 138.68 290 138 290 C138 289.34 138 288.68 138 288 C136.5498595 286.63766116 136.5498595 286.63766116 134.6875 285.375 C134.07261719 284.92898438 133.45773437 284.48296875 132.82421875 284.0234375 C130.91255444 282.75535719 130.91255444 282.75535719 128 283 C127.67 282.01 127.34 281.02 127 280 C110.38835541 266.23606591 88.79466417 257.05318414 69 249 C68.08460449 248.62472168 67.16920898 248.24944336 66.22607422 247.86279297 C40.73997314 237.34965108 40.73997314 237.34965108 14 231 Z M-41 365 C-41.46148438 365.94617188 -41.92296875 366.89234375 -42.3984375 367.8671875 C-46.5115978 376.23054207 -50.84753259 384.42627818 -55.41845703 392.54833984 C-57.81168194 396.81500678 -60.09748241 401.10480701 -62.25 405.5 C-64.41797155 409.92072411 -66.79838109 414.12269057 -69.375 418.31640625 C-71.27075583 421.44713763 -73.07346473 424.62713901 -74.875 427.8125 C-79.94867643 436.73587166 -85.38252319 445.4249727 -90.83984375 454.1171875 C-91.52296631 455.20660645 -92.20608887 456.29602539 -92.90991211 457.41845703 C-94.29520203 459.6265713 -95.68270965 461.83329591 -97.07250977 464.03857422 C-98.02661743 465.55862061 -98.02661743 465.55862061 -99 467.109375 C-99.5775 468.02686523 -100.155 468.94435547 -100.75 469.88964844 C-102.08493796 471.73460406 -102.08493796 471.73460406 -102 473 C-69.37776717 471.15225634 -36.60127759 465.13268173 -5 457 C-6.20919611 450.11787318 -8.74187332 443.59275743 -11 437 C-11.26087402 436.23139648 -11.52174805 435.46279297 -11.79052734 434.67089844 C-17.58595902 417.62142598 -24.14196106 400.93492712 -31.45703125 384.48046875 C-33.00046512 380.99895083 -34.50181909 377.50118366 -36 374 C-36.72546783 372.35253291 -37.45405397 370.70643075 -38.1875 369.0625 C-38.53167969 368.29035156 -38.87585938 367.51820313 -39.23046875 366.72265625 C-39.48441406 366.15417969 -39.73835937 365.58570313 -40 365 C-40.33 365 -40.66 365 -41 365 Z M-375 367 C-375.37511719 367.88300781 -375.75023437 368.76601563 -376.13671875 369.67578125 C-376.90435547 371.47595703 -376.90435547 371.47595703 -377.6875 373.3125 C-377.96078125 373.95405029 -378.2340625 374.59560059 -378.515625 375.2565918 C-380.10835267 378.97774072 -381.76677202 382.65409045 -383.5 386.3125 C-385.88661571 391.51136989 -387.76181312 396.83425805 -389.62451172 402.23608398 C-391.50411292 407.66584334 -393.52427442 413.02713683 -395.625 418.375 C-396.21877287 419.89322022 -396.81252363 421.41144909 -397.40625 422.9296875 C-398.32174554 425.26869305 -399.23838416 427.60723534 -400.15625 429.9453125 C-402.3423123 435.71017033 -404.11422106 441.57647787 -405.8125 447.5 C-406.04404785 448.29083984 -406.2755957 449.08167969 -406.51416016 449.89648438 C-407.84226775 454.43713648 -407.84226775 454.43713648 -407 459 C-404.35712152 459.90449701 -404.35712152 459.90449701 -401.0625 460.4375 C-399.16177734 460.80488281 -399.16177734 460.80488281 -397.22265625 461.1796875 C-396.5383252 461.30956055 -395.85399414 461.43943359 -395.14892578 461.57324219 C-392.18039034 462.16276729 -389.23737337 462.85044079 -386.28930664 463.53393555 C-379.09056278 465.19601089 -371.93851109 466.57884485 -364.6015625 467.5078125 C-361.64259433 467.91218342 -358.72831952 468.40044344 -355.7890625 468.921875 C-347.15623966 470.37790061 -338.45355112 471.21527367 -329.75 472.125 C-328.02210072 472.30826696 -326.29423583 472.49185838 -324.56640625 472.67578125 C-320.37799062 473.12092415 -316.18913607 473.56169106 -312 474 C-312.61713867 472.91283691 -313.23427734 471.82567383 -313.87011719 470.70556641 C-314.21725769 470.09403717 -314.56439819 469.48250793 -314.92205811 468.85244751 C-316.60268938 465.96427587 -318.42707905 463.17495411 -320.25 460.375 C-326.43758658 450.81562711 -332.39350106 441.12959681 -338.09765625 431.2734375 C-339.49089922 428.87602967 -340.89373052 426.48613739 -342.30859375 424.1015625 C-350.43880601 410.39056434 -358.29541852 396.58847209 -365.33203125 382.28125 C-367.98560581 377.06110333 -370.81295928 371.91560518 -374 367 C-374.33 367 -374.66 367 -375 367 Z M-415 479 C-418.1159059 491.68673785 -421.19055678 504.38155469 -423.49853516 517.24365234 C-423.836922 519.10362674 -424.1911557 520.96077823 -424.56005859 522.81494141 C-428.05724671 540.73321852 -428.4506374 558.54558517 -428.5625 576.75 C-428.5771228 577.90915924 -428.59174561 579.06831848 -428.60681152 580.26260376 C-428.83731506 601.92744735 -427.3724038 626.47583448 -416.5 645.8125 C-415.61828125 647.39998047 -415.61828125 647.39998047 -414.71875 649.01953125 C-407.71905689 661.15763543 -398.6341025 669.15766202 -385 673 C-361.34387318 678.78695334 -334.9026986 668.15421576 -314 658 C-312.96746094 657.50371094 -311.93492187 657.00742187 -310.87109375 656.49609375 C-304.36630286 653.31431226 -298.13640532 649.84125529 -292 646 C-291.10410156 645.443125 -290.20820313 644.88625 -289.28515625 644.3125 C-279.04201791 637.87641869 -269.37438482 630.82647355 -259.80029297 623.44287109 C-258.74092529 622.62616943 -258.74092529 622.62616943 -257.66015625 621.79296875 C-257.02730713 621.3033667 -256.39445801 620.81376465 -255.74243164 620.30932617 C-254.20137955 619.15132388 -252.60389664 618.06926443 -251 617 C-251 616.34 -251 615.68 -251 615 C-250.43152344 614.73832031 -249.86304688 614.47664062 -249.27734375 614.20703125 C-246.81761666 612.9033337 -244.75515421 611.40134237 -242.5625 609.6875 C-241.45068359 608.82705078 -241.45068359 608.82705078 -240.31640625 607.94921875 C-237.71974366 605.76416878 -235.37434355 603.42470841 -233 601 C-232.03631185 600.03400203 -231.071436 599.06918769 -230.10546875 598.10546875 C-229.62529297 597.62529297 -229.14511719 597.14511719 -228.65039062 596.65039062 C-226.43359375 594.43359375 -224.21679688 592.21679688 -222 590 C-223.37247689 585.79354381 -225.23671869 583.45958416 -228.4375 580.4375 C-230.71756815 578.27012055 -232.80582449 576.26636311 -234.66015625 573.72265625 C-235.10230469 573.15417969 -235.54445313 572.58570313 -236 572 C-236.66 572 -237.32 572 -238 572 C-238.24492187 571.43539062 -238.48984375 570.87078125 -238.7421875 570.2890625 C-240.226895 567.58707928 -242.01966335 565.62705 -244.125 563.375 C-247.84218143 559.3150578 -251.35179092 555.16625128 -254.7578125 550.84375 C-256.49076141 548.64586358 -258.23561487 546.46014988 -259.9921875 544.28125 C-260.51965576 543.62600342 -261.04712402 542.97075684 -261.59057617 542.2956543 C-262.62605275 541.00973835 -263.66260845 539.72469033 -264.70043945 538.44067383 C-267.1630038 535.37424658 -269.51223436 532.28626446 -271.73828125 529.04296875 C-272.48464844 528.03878906 -273.23101562 527.03460937 -274 526 C-274.66 526 -275.32 526 -276 526 C-276.09023438 525.43539062 -276.18046875 524.87078125 -276.2734375 524.2890625 C-277.19417376 521.38824827 -278.66444505 519.69890104 -280.625 517.375 C-284.07286381 513.19315444 -287.22669854 508.91039124 -290.26171875 504.421875 C-290.83535156 503.62265625 -291.40898437 502.8234375 -292 502 C-292.70737305 500.98873047 -293.41474609 499.97746094 -294.14355469 498.93554688 C-297.13119225 495.39286151 -299.82937404 495.04298245 -304.44140625 494.609375 C-305.15673523 494.53459427 -305.87206421 494.45981354 -306.60906982 494.38276672 C-308.92518288 494.14659959 -311.24287212 493.94835645 -313.5625 493.75 C-315.17042358 493.59170616 -316.77809247 493.43080412 -318.38549805 493.26733398 C-322.92097822 492.81287896 -327.45944519 492.40012071 -332 492 C-354.55754802 489.98113481 -376.76120787 486.2382088 -398.93237305 481.61206055 C-404.28234542 480.50113981 -409.566904 479.59083313 -415 479 Z M0 477 C-0.99 477.33 -1.98 477.66 -3 478 C-29.08794974 483.98614208 -55.48104618 488.85956127 -82.13964844 491.35449219 C-86.19938292 491.67149453 -86.19938292 491.67149453 -90 493 C-91.70445187 493.18577936 -93.41426114 493.32329536 -95.125 493.4375 C-96.73375 493.58445312 -96.73375 493.58445312 -98.375 493.734375 C-100.95371997 493.92333293 -103.4244887 494.01314855 -106 494.015625 C-111.85717413 494.16868098 -116.40551542 494.48185873 -120.85546875 498.71875 C-123.07696014 501.65125602 -124.92646806 504.78709647 -126.76416016 507.96972656 C-128.92302879 511.5163784 -131.48527567 514.76359225 -134 518.0625 C-136.88762446 521.86461318 -139.4761039 525.41965319 -141 530 C-141.66 530 -142.32 530 -143 530 C-143.91909513 531.34329288 -144.82826636 532.69389251 -145.703125 534.06640625 C-151.08102829 542.08466567 -157.7678451 549.36918757 -163.9152832 556.80297852 C-167.02709667 560.57363539 -170.09444996 564.36419765 -173.0625 568.25 C-175.50258516 571.42877098 -178.1279195 574.19630237 -181 577 C-182.6182901 578.69496036 -184.22123316 580.40464443 -185.8125 582.125 C-186.99779297 583.39730469 -186.99779297 583.39730469 -188.20703125 584.6953125 C-190.30701661 586.90797567 -190.30701661 586.90797567 -190 590 C-188.73955057 591.70816136 -188.73955057 591.70816136 -187.0078125 593.35546875 C-186.38519531 593.97744141 -185.76257813 594.59941406 -185.12109375 595.24023438 C-184.46238281 595.88283203 -183.80367188 596.52542969 -183.125 597.1875 C-182.47402344 597.84169922 -181.82304687 598.49589844 -181.15234375 599.16992188 C-178.09861744 602.70309672 -178.09861744 602.70309672 -174 604 C-174 604.66 -174 605.32 -174 606 C-172.37898212 607.41261529 -172.37898212 607.41261529 -170.3125 608.8125 C-166.87168686 611.30453744 -164.00729108 613.99270892 -161 617 C-155.5928236 622.39131672 -155.5928236 622.39131672 -149 625 C-149 625.66 -149 626.32 -149 627 C-148.401875 627.268125 -147.80375 627.53625 -147.1875 627.8125 C-145 629 -145 629 -143.73046875 630.3125 C-135.97668994 637.87374705 -125.2292153 643.49754623 -116 649 C-114.93523437 649.64710938 -113.87046875 650.29421875 -112.7734375 650.9609375 C-89.12021816 664.97560844 -59.06064318 679.27479952 -30.80712891 673.55615234 C-16.0943066 669.62497648 -7.68326074 660.58077782 0 648 C0.35835937 647.4225 0.71671875 646.845 1.0859375 646.25 C12.95870166 624.97400663 14.41938972 596.76321289 14.25 572.9375 C14.24656586 572.13740509 14.24313171 571.33731018 14.23959351 570.51296997 C14.10066169 542.70144077 10.63650391 516.03969489 4.3125 488.9375 C4.00928833 487.63474121 4.00928833 487.63474121 3.69995117 486.30566406 C3.40954956 485.11602051 3.40954956 485.11602051 3.11328125 483.90234375 C2.94610596 483.21648193 2.77893066 482.53062012 2.60668945 481.82397461 C1.98804707 479.69635517 1.98804707 479.69635517 0 477 Z M-268 498 C-266.83080393 501.17527257 -265.6532794 503.73977503 -263.49609375 506.34765625 C-263.0067334 506.94763428 -262.51737305 507.5476123 -262.01318359 508.16577148 C-261.49320801 508.79169189 -260.97323242 509.4176123 -260.4375 510.0625 C-255.67522618 515.88105681 -251.13269767 521.79905214 -246.7421875 527.90234375 C-246.16726563 528.59457031 -245.59234375 529.28679688 -245 530 C-244.34 530 -243.68 530 -243 530 C-242.67 531.32 -242.34 532.64 -242 534 C-241.34 534 -240.68 534 -240 534 C-239.68095703 534.78117188 -239.68095703 534.78117188 -239.35546875 535.578125 C-237.43280276 539.01343599 -234.89976543 541.79712557 -232.3125 544.75 C-231.76722656 545.3783374 -231.22195313 546.0066748 -230.66015625 546.65405273 C-229.58334884 547.89382341 -228.50479089 549.13207625 -227.42431641 550.36865234 C-226.30222724 551.65384257 -225.18695234 552.94498237 -224.07421875 554.23828125 C-218.54905886 560.64088589 -212.75304974 566.80295464 -207 573 C-203.62691239 571.87563746 -202.84876903 570.92657267 -200.625 568.25 C-198.70546452 565.95356942 -196.78630072 563.79020552 -194.6484375 561.69140625 C-191.53001322 558.52238806 -188.77590337 555.15557668 -186 551.6875 C-184.85309369 550.26283636 -183.70595123 548.83836281 -182.55859375 547.4140625 C-181.97319824 546.68606445 -181.38780273 545.95806641 -180.78466797 545.20800781 C-179.02600214 543.03217008 -177.25237133 540.86957884 -175.47265625 538.7109375 C-167.87498465 529.52759601 -167.87498465 529.52759601 -161.1484375 519.69921875 C-160 518 -160 518 -158.59472656 516.61279297 C-156.99396517 514.9938968 -155.67893016 513.33253633 -154.3359375 511.49609375 C-153.85382813 510.83802734 -153.37171875 510.17996094 -152.875 509.50195312 C-152.38 508.82068359 -151.885 508.13941406 -151.375 507.4375 C-150.62089844 506.40979492 -150.62089844 506.40979492 -149.8515625 505.36132812 C-147.21415639 501.81198173 -147.21415639 501.81198173 -145 498 C-151.99529403 497.95008808 -158.95837611 497.99764495 -165.94482422 498.35595703 C-199.89542827 500.06129131 -234.04474296 499.2257274 -268 498 Z " fill="#00D7FE" transform="translate(607,14)"/>
<path d="M0 0 C13.83159273 14.52814776 20.4042505 32.58774736 20.30517578 52.41992188 C19.77276143 73.69764929 11.96497396 90.06957361 -2.39453125 105.38671875 C-4.75 107.625 -4.75 107.625 -6.75 107.625 C-6.75 108.285 -6.75 108.945 -6.75 109.625 C-8.07 109.955 -9.39 110.285 -10.75 110.625 C-10.75 111.285 -10.75 111.945 -10.75 112.625 C-19.75294715 119.46020933 -30.68382456 122.99613958 -41.75 124.625 C-42.65105469 124.76035156 -43.55210937 124.89570313 -44.48046875 125.03515625 C-61.99641777 127.09168468 -79.52598686 122.63151764 -94.3125 113.1875 C-95.22128906 112.61128906 -96.13007813 112.03507813 -97.06640625 111.44140625 C-102.14118132 108.00651482 -106.05674018 104.47899862 -109.75 99.625 C-109.75 98.965 -109.75 98.305 -109.75 97.625 C-111.235 97.13 -111.235 97.13 -112.75 96.625 C-113.4375 94.5625 -113.4375 94.5625 -113.75 92.625 C-114.41 92.625 -115.07 92.625 -115.75 92.625 C-125.29775464 74.96165393 -130.35657809 54.89711005 -125.4375 34.9375 C-124.90039265 33.1588003 -124.34000556 31.38685992 -123.75 29.625 C-123.52183594 28.8309375 -123.29367187 28.036875 -123.05859375 27.21875 C-121.36887384 21.57991327 -118.76462984 16.66527045 -115.75 11.625 C-115.09 11.625 -114.43 11.625 -113.75 11.625 C-113.69199219 11.08746094 -113.63398438 10.54992187 -113.57421875 9.99609375 C-112.3783092 6.55572838 -110.02231496 4.28343121 -107.5625 1.6875 C-107.09263672 1.17509766 -106.62277344 0.66269531 -106.13867188 0.13476562 C-101.23699794 -5.12801389 -96.31138379 -9.37309054 -89.75 -12.5 C-88.76 -12.97695313 -87.77 -13.45390625 -86.75 -13.9453125 C-85.76 -14.41710937 -84.77 -14.88890625 -83.75 -15.375 C-82.25533203 -16.15617187 -82.25533203 -16.15617187 -80.73046875 -16.953125 C-53.84504001 -29.77920109 -20.59840194 -19.49737378 0 0 Z " fill="#00D7FE" transform="translate(452.75,302.375)"/>
<path d="M0 0 C1.58206057 0.00667536 3.16410534 0.0186375 4.74609375 0.03515625 C5.55240234 0.03966797 6.35871094 0.04417969 7.18945312 0.04882812 C9.18753131 0.06065107 11.18557158 0.07858711 13.18359375 0.09765625 C32.81085538 36.26519949 32.81085538 36.26519949 38.8046875 48.3671875 C41.35934711 53.42584776 44.03930837 58.38122818 47.18359375 63.09765625 C47.51359375 42.30765625 47.84359375 21.51765625 48.18359375 0.09765625 C52.47359375 0.09765625 56.76359375 0.09765625 61.18359375 0.09765625 C61.18359375 28.14765625 61.18359375 56.19765625 61.18359375 85.09765625 C55.24359375 85.09765625 49.30359375 85.09765625 43.18359375 85.09765625 C39.18359375 77.09765625 39.18359375 77.09765625 37.2265625 73.1171875 C35.12908471 68.92121026 32.81606029 64.86089691 30.49609375 60.78515625 C26.38629304 53.4989724 22.68632842 46.08382867 19.2277832 38.4675293 C17.20255375 34.05019137 14.95535622 30.1103333 12.18359375 26.09765625 C11.52359375 24.77765625 10.86359375 23.45765625 10.18359375 22.09765625 C9.85359375 42.88765625 9.52359375 63.67765625 9.18359375 85.09765625 C4.89359375 85.09765625 0.60359375 85.09765625 -3.81640625 85.09765625 C-5.56823437 83.34582813 -4.94250928 81.05120592 -4.95193481 78.71705627 C-4.94991058 77.9461113 -4.94788635 77.17516632 -4.94580078 76.38085938 C-4.9475531 75.57277328 -4.94930542 74.76468719 -4.95111084 73.93211365 C-4.95553001 71.24768965 -4.95259114 68.56333097 -4.94921875 65.87890625 C-4.94989177 64.02185046 -4.95086178 62.16479475 -4.95211792 60.30773926 C-4.95359498 56.41039188 -4.95144007 52.51306738 -4.94677734 48.61572266 C-4.94108005 43.60831125 -4.94435901 38.60095344 -4.95034981 33.59354401 C-4.9539552 29.75725904 -4.95281694 25.92098688 -4.95022202 22.08470154 C-4.94955269 20.23782851 -4.95038138 18.39095433 -4.95270157 16.54408264 C-4.95522774 13.96750793 -4.95138802 11.39102124 -4.94580078 8.81445312 C-4.94782501 8.04350815 -4.94984924 7.27256317 -4.95193481 6.47825623 C-4.92628398 0.1260564 -4.92628398 0.1260564 0 0 Z " fill="#00D7FE" transform="translate(398.81640625,767.90234375)"/>
<path d="M0 0 C43.24561404 0 43.24561404 0 51 7 C55.89722771 14.11938017 56.63318819 21.54576508 56 30 C54.73856596 36.2537196 51.79342307 39.9056178 47 44 C46.01 44.33 45.02 44.66 44 45 C44.43570313 45.36609375 44.87140625 45.7321875 45.3203125 46.109375 C50.48472825 50.80429841 53.12662774 55.77768044 56.05029297 62.04394531 C58.45683934 67.00056473 61.13702671 71.82631519 63.74926758 76.67675781 C64.16974365 77.46663086 64.59021973 78.25650391 65.0234375 79.0703125 C65.40419434 79.77945801 65.78495117 80.48860352 66.17724609 81.21923828 C67 83 67 83 67 85 C62.38 85 57.76 85 53 85 C51.39505797 81.95874024 49.79102201 78.91700837 48.1875 75.875 C47.73568359 75.0190625 47.28386719 74.163125 46.81835938 73.28125 C44.93548582 69.70791333 43.06820112 66.14016506 41.30078125 62.5078125 C40.11588784 59.91447861 40.11588784 59.91447861 38 58 C37.7525 57.360625 37.505 56.72125 37.25 56.0625 C35.78003945 53.22361895 35.78003945 53.22361895 30 51 C24.39 50.67 18.78 50.34 13 50 C13 61.55 13 73.1 13 85 C8.71 85 4.42 85 0 85 C0 56.95 0 28.9 0 0 Z M13 10 C13 19.57 13 29.14 13 39 C15.990625 39.0825 18.98125 39.165 22.0625 39.25 C23.45480835 39.30462402 23.45480835 39.30462402 24.87524414 39.36035156 C30.79893826 39.43883624 34.14394692 38.42073531 39 35 C42.66281868 31.10087043 42.50272823 26.70590006 42.3515625 21.59375 C41.86567668 18.00899243 40.71997238 16.35240854 38 14 C30.52119017 8.48929802 22.0837687 10 13 10 Z " fill="#00D7FE" transform="translate(34,768)"/>
<path d="M0 0 C6.51755511 6.70377097 9.26724104 14.2346556 9.9375 23.5 C10.08445312 25.33304688 10.08445312 25.33304688 10.234375 27.203125 C10.1875 30.25 10.1875 30.25 8.1875 32.25 C6.20065308 32.49050903 6.20065308 32.49050903 3.73779297 32.47705078 C2.81698944 32.47689972 1.89618591 32.47674866 0.94747925 32.47659302 C-0.04839203 32.46627045 -1.04426331 32.45594788 -2.0703125 32.4453125 C-3.08850067 32.4424826 -4.10668884 32.43965271 -5.1557312 32.43673706 C-8.416439 32.4255177 -11.67687484 32.40040996 -14.9375 32.375 C-17.14452729 32.36497247 -19.35155888 32.35584623 -21.55859375 32.34765625 C-26.97665572 32.32557268 -32.39455843 32.29207795 -37.8125 32.25 C-37.24370907 34.00478052 -36.65679344 35.75369158 -36.0625 37.5 C-35.57523438 38.96179688 -35.57523438 38.96179688 -35.078125 40.453125 C-32.89908452 45.26853545 -29.82822782 47.58391589 -25 49.5 C-24.18917969 49.83515625 -23.37835937 50.1703125 -22.54296875 50.515625 C-16.41861595 52.16280429 -11.17521305 51.02588836 -5.1875 49.3125 C-1.07338701 48.14353015 2.98517846 47.09046431 7.1875 46.25 C7.1875 49.88 7.1875 53.51 7.1875 57.25 C-1.11571487 60.75227116 -7.72325014 61.80376271 -16.6875 61.5625 C-17.78835938 61.55283203 -18.88921875 61.54316406 -20.0234375 61.53320312 C-29.6424134 61.39895771 -29.6424134 61.39895771 -33.8125 60.25 C-34.3075 59.26 -34.3075 59.26 -34.8125 58.25 C-35.8953125 57.63125 -35.8953125 57.63125 -37 57 C-44.3869707 52.40366267 -48.2964316 46.31427361 -50.40234375 37.890625 C-52.03894308 27.35404268 -51.21543991 17.26186051 -45.9375 7.9375 C-34.02181623 -7.13233536 -16.44181655 -10.23046363 0 0 Z M-35.74609375 13.140625 C-37.33887151 15.89723825 -37.33887151 15.89723825 -36.8125 22.25 C-25.5925 22.25 -14.3725 22.25 -2.8125 22.25 C-4.14941684 12.78729587 -4.14941684 12.78729587 -9.8125 7.25 C-18.99008528 1.80501754 -29.08816875 5.8395062 -35.74609375 13.140625 Z " fill="#00D7FE" transform="translate(741.8125,792.75)"/>
<path d="M0 0 C7.26532989 6.00440487 9.95117374 12.56517304 11.6875 21.5625 C12.03887567 25.42763235 12.13378055 29.12036416 12 33 C11 34 11 34 9.09544373 34.12025452 C8.26271439 34.11803391 7.42998505 34.11581329 6.57202148 34.11352539 C5.63112167 34.11344986 4.69022186 34.11337433 3.72080994 34.11329651 C2.69790359 34.10813522 1.67499725 34.10297394 0.62109375 34.09765625 C-0.42070541 34.0962413 -1.46250458 34.09482635 -2.53587341 34.09336853 C-5.87811094 34.0877508 -9.22028257 34.0751953 -12.5625 34.0625 C-14.82226466 34.05748728 -17.08203037 34.05292398 -19.34179688 34.04882812 C-24.89455391 34.03777561 -30.44727225 34.02102024 -36 34 C-35.28924662 35.92357084 -34.55554122 37.83866934 -33.8125 39.75 C-33.40644531 40.81734375 -33.00039062 41.8846875 -32.58203125 42.984375 C-30.20379913 47.51769647 -26.71295238 50.09186494 -21.9375 51.8125 C-13.67398541 54.32449862 -5.24292227 52.42230872 2.74609375 49.71875 C5.14392733 48.9541029 7.52625 48.45373898 10 48 C10 51.3 10 54.6 10 58 C1.69106138 62.22257536 -4.15888011 63.28767009 -13.5 63.4375 C-14.634375 63.48326172 -15.76875 63.52902344 -16.9375 63.57617188 C-25.42632705 63.68812315 -30.96735672 61.72250174 -38 57 C-38 56.34 -38 55.68 -38 55 C-38.86625 54.7215625 -38.86625 54.7215625 -39.75 54.4375 C-44.03567849 51.69942763 -45.57639388 47.16491682 -47.25 42.5625 C-49.53447799 32.00450712 -49.31601049 19.19335082 -43.67578125 9.79296875 C-33.6362306 -4.40996511 -15.41977296 -8.67799628 0 0 Z M-29 10 C-29 10.66 -29 11.32 -29 12 C-29.99 12.33 -30.98 12.66 -32 13 C-34.02532117 16.97563044 -35 19.5050702 -35 24 C-23.45 24 -11.9 24 0 24 C-0.90834478 18.27768508 -0.90834478 18.27768508 -3.4375 13.625 C-3.86933594 12.93664062 -4.30117187 12.24828125 -4.74609375 11.5390625 C-5.15988281 11.03117188 -5.57367188 10.52328125 -6 10 C-6.66 10 -7.32 10 -8 10 C-8 9.34 -8 8.68 -8 8 C-15.46887895 5.87094025 -22.15596715 6.42920025 -29 10 Z " fill="#00D7FE" transform="translate(152,791)"/>
<path d="M0 0 C0.495 1.485 0.495 1.485 1 3 C1.63550781 3.31324219 2.27101562 3.62648438 2.92578125 3.94921875 C5.45736822 5.23169878 5.9984799 6.27430607 7.1875 8.8125 C7.67283203 9.81216797 7.67283203 9.81216797 8.16796875 10.83203125 C10.34414365 16.50234613 10.13063816 22.1279176 10.09765625 28.11328125 C10.0962413 29.08283249 10.09482635 30.05238373 10.09336853 31.05131531 C10.08778513 34.13840867 10.07523564 37.22542867 10.0625 40.3125 C10.05748286 42.40950416 10.05292032 44.50650946 10.04882812 46.60351562 C10.03782112 51.73570521 10.02056788 56.86784018 10 62 C6.04 62 2.08 62 -2 62 C-2.495 59.03 -2.495 59.03 -3 56 C-3.7425 56.78375 -4.485 57.5675 -5.25 58.375 C-10.65842804 63.5375904 -15.12691744 63.36510932 -22.3125 63.375 C-23.23740234 63.39949219 -24.16230469 63.42398438 -25.11523438 63.44921875 C-31.29455866 63.47556981 -35.0143561 62.73277484 -40 59 C-44.6293712 53.38370791 -45.75607279 46.95049198 -45.41796875 39.83203125 C-44.55761934 34.00256095 -42.34336421 30.40584627 -38.3125 26.1875 C-30.66448844 21.13692633 -22.92903344 20.51105121 -13.9375 20.3125 C-12.88111328 20.27833984 -11.82472656 20.24417969 -10.73632812 20.20898438 C-8.15765843 20.12730705 -5.57929438 20.05790057 -3 20 C-3.13019531 18.70835937 -3.26039063 17.41671875 -3.39453125 16.0859375 C-3.46776611 15.35938965 -3.54100098 14.6328418 -3.61645508 13.88427734 C-3.82391071 11.84693914 -3.82391071 11.84693914 -5.6875 10.625 C-6.450625 10.41875 -7.21375 10.2125 -8 10 C-8.825 9.62875 -9.65 9.2575 -10.5 8.875 C-18.0986025 6.97534938 -28.87949536 6.56515635 -35.75 10.625 C-36.4925 11.07875 -37.235 11.5325 -38 12 C-38.99 11.67 -39.98 11.34 -41 11 C-41 7.37 -41 3.74 -41 0 C-27.13587153 -3.98660434 -13.58595979 -7.00379651 0 0 Z M-31 35 C-33.43522498 38.65283747 -33.55474367 41.74968452 -33 46 C-31.42755114 50.18286888 -29.2278787 51.49042049 -25.28515625 53.30078125 C-19.97764183 54.92478994 -15.51957992 53.77412562 -10.6875 51.3125 C-5.01246445 46.42932987 -2.99911697 41.23045177 -2 34 C-2 32.68 -2 31.36 -2 30 C-17.25178855 29.41454912 -17.25178855 29.41454912 -31 35 Z " fill="#00D7FE" transform="translate(220,791)"/>
<path d="M0 0 C6.5776224 7.51728274 8.37243464 15.60154212 8.11328125 25.35546875 C8.10620651 26.38311844 8.09913177 27.41076813 8.09184265 28.46955872 C8.06414688 31.70965479 8.00145619 34.94793796 7.9375 38.1875 C7.91238504 40.40166752 7.88957753 42.61586248 7.86914062 44.83007812 C7.81440175 50.22073662 7.72830422 55.6100624 7.625 61 C3.665 61 -0.295 61 -4.375 61 C-4.705 59.35 -5.035 57.7 -5.375 56 C-5.78105469 56.433125 -6.18710937 56.86625 -6.60546875 57.3125 C-12.27786537 62.20366834 -17.72681775 62.65976464 -24.9375 62.75 C-25.83557373 62.77707031 -26.73364746 62.80414062 -27.65893555 62.83203125 C-34.43601785 62.74237577 -38.62866642 60.86335436 -43.375 56 C-46.86501591 50.74851379 -48.52693918 44.24162964 -47.375 38 C-45.56535716 31.38158713 -43.37054073 26.73307253 -37.375 23 C-30.27079503 19.7328155 -23.52072429 19.631294 -15.8125 19.8125 C-14.70841797 19.82603516 -13.60433594 19.83957031 -12.46679688 19.85351562 C-9.76900728 19.88855185 -7.07227364 19.93767409 -4.375 20 C-4.60360058 18.53815942 -4.85870392 17.08044581 -5.125 15.625 C-5.26421875 14.81289063 -5.4034375 14.00078125 -5.546875 13.1640625 C-6.18454421 10.85073714 -6.18454421 10.85073714 -8.3059082 9.78027344 C-8.9887085 9.5227832 -9.67150879 9.26529297 -10.375 9 C-11.15230469 8.63390625 -11.92960937 8.2678125 -12.73046875 7.890625 C-20.16869883 5.38557853 -29.04660315 6.55720105 -36.375 9 C-37.365 9.66 -38.355 10.32 -39.375 11 C-40.365 11 -41.355 11 -42.375 11 C-42.375 7.04 -42.375 3.08 -42.375 -1 C-27.95579855 -5.0988593 -13.71861974 -8.12955244 0 0 Z M-34.375 36 C-35.09782078 40.74876445 -35.0577583 44.78620747 -32.6875 49 C-29.5788909 51.68852679 -27.45827746 53.00385792 -23.265625 52.99609375 C-18.41987293 52.61396229 -14.47074614 51.7622474 -10.375 49 C-5.37245873 42.88578289 -4.05736394 36.78208359 -4.375 29 C-14.6584609 28.58216186 -26.66096634 28.28596634 -34.375 36 Z " fill="#00D7FE" transform="translate(523.375,792)"/>
<path d="M0 0 C4.29 0 8.58 0 13 0 C15.61884289 5.53985996 17.8075705 11.14967216 19.8125 16.9375 C23.55763575 27.74803889 27.73707148 38.38447212 32 49 C32.35191406 47.98164062 32.70382812 46.96328125 33.06640625 45.9140625 C36.03075022 37.39551689 39.14421133 28.95626039 42.44775391 20.56347656 C45.11782706 13.75904838 47.57875483 6.89688017 50 0 C54.29 0 58.58 0 63 0 C62.17732818 4.93603094 61.20974486 8.2959617 59.3125 12.8125 C57.03681144 18.3226418 54.94604653 23.86514991 53 29.5 C50.65671015 36.26241633 48.08498393 42.89780269 45.390625 49.52734375 C43.47477488 54.31158745 41.72901591 59.14545534 40 64 C34.72 64 29.44 64 24 64 C18.31411482 50.56063502 12.98495993 37.00910026 8.21264648 23.21777344 C6.05007408 17.01650415 3.61117335 10.94701658 1.1015625 4.87890625 C0 2 0 2 0 0 Z " fill="#00D7FE" transform="translate(620,789)"/>
<path d="M0 0 C2 2 2 2 2.1953125 4.3828125 C2.17210937 5.28773438 2.14890625 6.19265625 2.125 7.125 C2.10695313 8.03507813 2.08890625 8.94515625 2.0703125 9.8828125 C2.04710937 10.58148437 2.02390625 11.28015625 2 12 C-1.59869691 12 -2.86754001 11.78146091 -6 10.5 C-12.27589955 8.30759138 -19.31501389 7.81267501 -25.69140625 9.8671875 C-29.86365431 11.9144835 -32.4605379 15.19080684 -35 19 C-37.43608955 27.85991803 -36.83426006 38.32007857 -34 47 C-33.34 47 -32.68 47 -32 47 C-31.484375 47.598125 -30.96875 48.19625 -30.4375 48.8125 C-26.51514187 52.33256499 -21.9741443 53.91430432 -16.6953125 54.06640625 C-12.75178332 53.73209322 -9.35682528 52.84273011 -5.6875 51.375 C-2 50 -2 50 2 51 C2 53.97 2 56.94 2 60 C-4.75022083 64.07606372 -10.1301797 64.64498878 -17.9375 64.5625 C-18.97068359 64.58634766 -20.00386719 64.61019531 -21.06835938 64.63476562 C-29.86039367 64.61806132 -35.79487897 62.0068045 -42.3125 56.1875 C-47.41683549 50.64362451 -49.70124009 44.50796645 -50 37 C-50.03996094 36.06929687 -50.07992187 35.13859375 -50.12109375 34.1796875 C-50.36610006 22.9093973 -49.06033762 14.00017608 -41.5390625 5.3125 C-30.73671706 -5.2263736 -13.32627071 -5.29167034 0 0 Z " fill="#00D7FE" transform="translate(295,790)"/>
<path d="M0 0 C3.96 0 7.92 0 12 0 C12 5.94 12 11.88 12 18 C18.93 18 25.86 18 33 18 C33 21.3 33 24.6 33 28 C26.07 28 19.14 28 12 28 C12.09688834 33.49968837 12.19958789 38.99861451 12.31738281 44.49780273 C12.35568294 46.36882868 12.390534 48.23992853 12.421875 50.11108398 C12.46750324 52.79958519 12.52550088 55.48757723 12.5859375 58.17578125 C12.59748871 59.01337479 12.60903992 59.85096832 12.62094116 60.71394348 C12.72046457 64.62373037 12.7847302 66.6770953 15 70 C18.56086658 71.18695553 21.97331024 71.35095418 25.6875 71.5625 C26.7403418 71.62727539 26.7403418 71.62727539 27.81445312 71.69335938 C29.54275206 71.7991736 31.2713511 71.90006581 33 72 C33 75.3 33 78.6 33 82 C29.66577562 82.10872471 26.33515341 82.18766068 23 82.25 C22.06542969 82.28351563 21.13085938 82.31703125 20.16796875 82.3515625 C14.20546024 82.43495423 8.6456325 82.10502159 4 78 C-0.16503735 72.27654296 -0.54937943 67.86503295 -0.390625 60.91015625 C-0.38496521 59.96563095 -0.37930542 59.02110565 -0.37347412 58.04795837 C-0.35121071 55.05227444 -0.30103331 52.05781805 -0.25 49.0625 C-0.22992202 47.02280382 -0.21167353 44.98308876 -0.1953125 42.94335938 C-0.15137883 37.96177174 -0.0824212 32.98109348 0 28 C-2.64 28 -5.28 28 -8 28 C-8 24.7 -8 21.4 -8 18 C-5.36 18 -2.72 18 0 18 C0 12.06 0 6.12 0 0 Z " fill="#00D7FE" transform="translate(551,771)"/>
<path d="M0 0 C3.63 0 7.26 0 11 0 C11 5.94 11 11.88 11 18 C18.26 18 25.52 18 33 18 C33 21.3 33 24.6 33 28 C25.74 28 18.48 28 11 28 C11.12047038 32.6957816 11.24337406 37.39137475 11.37231445 42.08691406 C11.41538357 43.68127784 11.45707576 45.27567947 11.49731445 46.87011719 C11.55570305 49.17394375 11.61919211 51.47758459 11.68359375 53.78125 C11.70030624 54.48366821 11.71701874 55.18608643 11.73423767 55.90979004 C11.87361589 60.66237283 12.35111297 65.28921871 13 70 C17.24733832 70.98142381 21.47324533 71.30920379 25.8125 71.5625 C26.85180664 71.62727539 26.85180664 71.62727539 27.91210938 71.69335938 C29.60788686 71.79861453 31.30392052 71.89972863 33 72 C33 75.3 33 78.6 33 82 C29.66577562 82.10872471 26.33515341 82.18766068 23 82.25 C22.06542969 82.28351563 21.13085938 82.31703125 20.16796875 82.3515625 C13.87739216 82.43954259 9.25008079 81.5897706 4 78 C0.46489969 74.35086419 -0.12843967 70.64197059 -0.11352539 65.69042969 C-0.11344986 64.84986023 -0.11337433 64.00929077 -0.11329651 63.14324951 C-0.10813522 62.24519592 -0.10297394 61.34714233 -0.09765625 60.421875 C-0.0962413 59.4953009 -0.09482635 58.56872681 -0.09336853 57.61407471 C-0.08777824 54.65935008 -0.0752275 51.70470167 -0.0625 48.75 C-0.05748375 46.74479276 -0.05292106 44.73958433 -0.04882812 42.734375 C-0.03781199 37.82288737 -0.020554 32.9114566 0 28 C-2.64 28 -5.28 28 -8 28 C-8 24.7 -8 21.4 -8 18 C-5.36 18 -2.72 18 0 18 C0 12.06 0 6.12 0 0 Z " fill="#00D7FE" transform="translate(313,771)"/>
<path d="M0 0 C3.96 0 7.92 0 12 0 C12 21.12 12 42.24 12 64 C8.04 64 4.08 64 0 64 C0 42.88 0 21.76 0 0 Z " fill="#00D7FE" transform="translate(596,789)"/>
<path d="M0 0 C8.49609375 -0.09765625 8.49609375 -0.09765625 11 0 C12 1 12 1 12.1328125 3.90625 C12.13023437 5.0921875 12.12765625 6.278125 12.125 7.5 C12.12757813 8.6859375 12.13015625 9.871875 12.1328125 11.09375 C12 14 12 14 11 15 C7.3308423 15.14310287 3.67284559 15.04221662 0 15 C0 10.05 0 5.1 0 0 Z " fill="#00D7FE" transform="translate(596,764)"/>
</svg>
